<svg id="account" xmlns="http://www.w3.org/2000/svg" width="15.22" height="19.775" viewBox="0 0 15.22 19.775">
  <path id="Path_1137" data-name="Path 1137" d="M437.79,135.34H424.17a.5.5,0,0,1-.5-.5v-.12a7,7,0,0,1,1.06-3.7.5.5,0,1,1,.85.52,6.07,6.07,0,0,0-.89,2.8h12.57a6.72,6.72,0,0,0-2.22-4l-.48-.36a7.61,7.61,0,1,1,2.66-2.21.51.51,0,0,1-.7.1.5.5,0,0,1-.1-.7,6.62,6.62,0,1,0-2.05,1.78.49.49,0,0,1,.54,0l.74.56a7.55,7.55,0,0,1,2.64,5.33A.5.5,0,0,1,437.79,135.34Z" transform="translate(-423.544 -115.565)" fill="#f2f5fc"/>
  <path id="Path_1138" data-name="Path 1138" d="M431.22,127.59a4.26,4.26,0,0,1-3.69-2.14.253.253,0,1,1,.44-.25,3.74,3.74,0,0,0,6.5,0,.25.25,0,0,1,.34-.09.26.26,0,0,1,.1.34,4.27,4.27,0,0,1-3.69,2.14Z" transform="translate(-423.544 -115.565)" fill="#f2f5fc"/>
</svg>
