<svg id="apple_pay" data-name="apple pay" xmlns="http://www.w3.org/2000/svg" width="29.165" height="20.272" viewBox="0 0 29.165 20.272">
  <path id="Path_1301" data-name="Path 1301" d="M60.883,33.817h-.221a.339.339,0,0,1-.309-.309,2.488,2.488,0,0,1,.633-1.87,2.768,2.768,0,0,1,1.8-.927.353.353,0,0,1,.383.324,2.709,2.709,0,0,1-.6,1.929h0a2.223,2.223,0,0,1-1.678.854Zm1.472-2.282a1.958,1.958,0,0,0-.883.574,1.884,1.884,0,0,0-.456.957,1.619,1.619,0,0,0,.9-.559,2.3,2.3,0,0,0,.515-.972Zm-.162,1.207Z" transform="translate(-46.131 -27.325)" fill="#909399"/>
  <path id="Path_1302" data-name="Path 1302" d="M60.663,41.46c-1.089,0-1.811-1.045-2.194-1.619a6.051,6.051,0,0,1-.692-5.977,3.254,3.254,0,0,1,2.753-1.678h0a3.46,3.46,0,0,1,1.354.324l.383.132.324-.132a4.019,4.019,0,0,1,1.634-.339h0a3.136,3.136,0,0,1,1.472.442,2.621,2.621,0,0,1,.957.927.663.663,0,0,1,.088.574.736.736,0,0,1-.368.471,1.577,1.577,0,0,0,.221,2.753,1.34,1.34,0,0,1,.236.162.78.78,0,0,1,.221.53,4.829,4.829,0,0,1-.839,1.87,2.827,2.827,0,0,1-2.149,1.59,2.532,2.532,0,0,1-1.148-.236,1.354,1.354,0,0,0-1.237,0,2.414,2.414,0,0,1-1.016.265Zm-.118-7.8a1.8,1.8,0,0,0-1.472.927A4.637,4.637,0,0,0,59.691,39c.191.28.677.986.986.986h0a1.089,1.089,0,0,0,.471-.132,2.709,2.709,0,0,1,1.237-.294,2.753,2.753,0,0,1,1.178.28.986.986,0,0,0,.5.118c.309,0,.618-.368.986-.942a3.46,3.46,0,0,0,.412-.736,2.944,2.944,0,0,1-1.237-2.4,2.812,2.812,0,0,1,.766-2h0a1.885,1.885,0,0,0-.81-.25,2.738,2.738,0,0,0-1.06.265,2.326,2.326,0,0,1-1.781,0A2.576,2.576,0,0,0,60.545,33.657Z" transform="translate(-47.575 -26.635)" fill="#909399"/>
  <path id="Path_1303" data-name="Path 1303" d="M77.646,48.682H52.9a2.208,2.208,0,0,1-2.208-2.208V30.618A2.208,2.208,0,0,1,52.9,28.41H77.646a2.208,2.208,0,0,1,2.208,2.208v3.813a.736.736,0,0,1-.736.736H73.392a.736.736,0,0,1-.736-.736.751.751,0,0,1,.736-.736h5.035V30.618a.751.751,0,0,0-.736-.736H52.9a.736.736,0,0,0-.736.736V46.474a.736.736,0,0,0,.736.736H77.646a.751.751,0,0,0,.736-.736V38.981a.736.736,0,1,1,1.472,0v7.494A2.208,2.208,0,0,1,77.646,48.682Z" transform="translate(-50.69 -28.41)" fill="#909399"/>
</svg>
