<svg id="Component_79_1" data-name="Component 79 – 1" xmlns="http://www.w3.org/2000/svg" width="88" height="88" viewBox="0 0 88 88">
  <g id="avatar">
    <g id="Component_77_1" data-name="Component 77 – 1">
      <g id="Component_78_1" data-name="Component 78 – 1">
        <circle id="Ellipse_154" data-name="Ellipse 154" cx="44" cy="44" r="44" fill="#c9bf1c"/>
      </g>
    </g>
  </g>
  <g id="account" transform="translate(22.5 16)">
    <path id="Path_1137" data-name="Path 1137" d="M464,171.34H425.322a1.415,1.415,0,0,1-1.42-1.41v-.338a19.646,19.646,0,0,1,3.01-10.436,1.427,1.427,0,0,1,2.591.413,1.374,1.374,0,0,1-.177,1.053,17.041,17.041,0,0,0-2.527,7.9h35.694a18.921,18.921,0,0,0-6.3-11.282l-1.363-1.015a21.694,21.694,0,0,1-27.763-7.456,21.364,21.364,0,0,1,4.282-28.247,21.719,21.719,0,0,1,28.743.995,21.358,21.358,0,0,1,2.292,28.475,1.455,1.455,0,0,1-1.988.282,1.4,1.4,0,0,1-.284-1.974,18.58,18.58,0,0,0-2.125-24.918,18.893,18.893,0,0,0-25.173-.469,18.583,18.583,0,0,0-3.064,24.822,18.878,18.878,0,0,0,24.542,5.586,1.4,1.4,0,0,1,1.533,0l2.1,1.579a21.243,21.243,0,0,1,7.5,15.033A1.415,1.415,0,0,1,464,171.34Z" transform="translate(-423.544 -115.565)" fill="#f2f5fc"/>
    <path id="Path_1138" data-name="Path 1138" d="M438.6,132.584A12.709,12.709,0,0,1,427.6,126.2a.755.755,0,0,1,1.313-.746,11.158,11.158,0,0,0,19.391,0,.746.746,0,0,1,1.014-.268.776.776,0,0,1,.3,1.014A12.738,12.738,0,0,1,438.6,132.584Z" transform="translate(-416.694 -98.229)" fill="#f2f5fc"/>
  </g>
</svg>
