<svg xmlns="http://www.w3.org/2000/svg" width="13.36" height="13.413" viewBox="0 0 13.36 13.413">
  <g id="Group_630" data-name="Group 630" transform="translate(3086.88 -615)">
    <path id="Path_1021" data-name="Path 1021" d="M536.968,80.413h-7.789a1,1,0,0,1-1-1V75.163a.334.334,0,0,1,.668,0v4.248a.334.334,0,0,0,.334.334h7.789a.341.341,0,0,0,.334-.334V71.436a.334.334,0,0,1,.334-.334h.835a.334.334,0,0,0,.334-.334v-.741a.334.334,0,0,0-.334-.334h-3.634a.334.334,0,0,1-.334-.334V68.022a.341.341,0,0,0-.334-.334h-2.786a.334.334,0,0,0-.334.334v1.336a.334.334,0,0,1-.334.334h-3.594a.334.334,0,0,0-.334.334v.668a.328.328,0,0,0,.327.334h1.4a.341.341,0,0,1,.334.334v1.67a.334.334,0,1,1-.668,0V71.7h-1.075a1,1,0,0,1-.989-1v-.668a1,1,0,0,1,1-1h3.26V67.989a1,1,0,0,1,1-.989h2.792a1,1,0,0,1,1,1v1h3.3a1,1,0,0,1,1,1v.741a1,1,0,0,1-1,1h-.5v7.662a1,1,0,0,1-1.009,1Z" transform="translate(-3613 548)" fill="#909399"/>
    <path id="Path_1022" data-name="Path 1022" d="M533.587,80.676a.167.167,0,0,1-.167-.167V74.577a.167.167,0,1,1,.334,0v5.932A.167.167,0,0,1,533.587,80.676Z" transform="translate(-3615.424 545.54)" fill="#909399"/>
    <path id="Path_1023" data-name="Path 1023" d="M538.467,80.676a.167.167,0,0,1-.167-.167V74.577a.167.167,0,1,1,.334,0v5.932A.167.167,0,0,1,538.467,80.676Z" transform="translate(-3617.044 545.54)" fill="#909399"/>
  </g>
</svg>
