<svg id="discount" xmlns="http://www.w3.org/2000/svg" viewBox="0 0 19.91 13.94"><defs><style>.cls-1{fill:#c93a5c;}</style></defs><title>discount food</title><path id="Path_1015" data-name="Path 1015" class="cls-1" d="M13.12,13.94H5.37a.5.5,0,1,1,0-1h7.54l5.74-5.75L12.52,1.05H1.17L1,13h.21l9.67-9.67a.49.49,0,0,1,.7.06.5.5,0,0,1,0,.65L1.77,13.79a.51.51,0,0,1-.35.15H.5a.55.55,0,0,1-.36-.15A.54.54,0,0,1,0,13.43L.14.5A.52.52,0,0,1,.64,0H12.7a.58.58,0,0,1,.35.15l6.72,6.69a.5.5,0,0,1,0,.7l-6.25,6.25A.49.49,0,0,1,13.12,13.94Z" transform="translate(0 0)"/><path id="Path_1016" data-name="Path 1016" class="cls-1" d="M5.5,6.56A1.74,1.74,0,1,1,7.24,4.82h0A1.74,1.74,0,0,1,5.5,6.56Zm0-3A1.24,1.24,0,1,0,6.74,4.8h0A1.25,1.25,0,0,0,5.5,3.56Z" transform="translate(0 0)"/><path id="Path_1016-2" data-name="Path 1016" class="cls-1" d="M10.59,11.06a1.74,1.74,0,1,1,1.74-1.74h0A1.74,1.74,0,0,1,10.59,11.06Zm0-3A1.24,1.24,0,1,0,11.83,9.3h0A1.25,1.25,0,0,0,10.59,8.06Z" transform="translate(0 0)"/></svg>