<svg id="discount" xmlns="http://www.w3.org/2000/svg" width="18.83" height="12.93" viewBox="0 0 18.83 12.93">
  <path id="Path_1124" data-name="Path 1124" d="M1.83,12.93H12.59l6.24-6.24L12.2.05.14,0,0,12.93H1.83Z" fill="#c93a5c"/>
  <path id="Path_1125" data-name="Path 1125" d="M3.06,11.3a.47.47,0,0,1-.35-.15.5.5,0,0,1,0-.71L11.16,2a.5.5,0,0,1,.71.71L3.41,11.15A.47.47,0,0,1,3.06,11.3Z" fill="#fff"/>
  <path id="Path_1126" data-name="Path 1126" d="M5,6A1.74,1.74,0,1,1,6.71,4.3,1.74,1.74,0,0,1,5,6ZM5,3A1.24,1.24,0,1,0,6.21,4.3,1.24,1.24,0,0,0,5,3.07Z" fill="#fff"/>
  <path id="Path_1127" data-name="Path 1127" d="M10.57,10.51a1.74,1.74,0,1,1,1.74-1.74,1.74,1.74,0,0,1-1.74,1.74Zm0-3a1.23,1.23,0,1,1,0,.02Z" fill="#fff"/>
</svg>
