<svg id="facebook" xmlns="http://www.w3.org/2000/svg" width="10.83" height="19.93" viewBox="0 0 10.83 19.93">
  <path id="Path_1097" data-name="Path 1097" d="M484.13,174.61h-3.48a.5.5,0,0,1-.5-.5V166h-2.4a.5.5,0,0,1-.5-.5v-3.37a.5.5,0,0,1,.5-.5h2.4v-2a4.566,4.566,0,0,1,4.84-4.95,26.405,26.405,0,0,1,2.64.14.5.5,0,0,1,.45.5v3a.51.51,0,0,1-.5.5H485.8c-1.06,0-1.17.34-1.17,1.13v1.65h2.83a.5.5,0,0,1,.38.17.47.47,0,0,1,.12.39l-.43,3.37a.51.51,0,0,1-.5.44h-2.4v1.46a.5.5,0,0,1-1,0v-2a.5.5,0,0,1,.5-.5h2.46l.31-2.37h-2.77a.5.5,0,0,1-.5-.5V160c0-1,.25-2.13,2.17-2.13h1.28v-2.06c-.68-.06-1.37-.09-2-.09H485c-2.41,0-3.84,1.48-3.84,3.95v2.48a.5.5,0,0,1-.5.5h-2.4V165h2.4a.5.5,0,0,1,.5.5v8.13h2.48v-3.17a.5.5,0,0,1,1,0v3.67A.5.5,0,0,1,484.13,174.61Z" transform="translate(-477.25 -154.68)" fill="#4471dc"/>
</svg>
