<svg xmlns="http://www.w3.org/2000/svg" width="17.486" height="32.179" viewBox="0 0 17.486 32.179">
  <path id="Path_1210" data-name="Path 1210" d="M488.358,186.859H482.74a.807.807,0,0,1-.807-.807V172.957h-3.875a.807.807,0,0,1-.807-.807v-5.441a.807.807,0,0,1,.807-.807h3.875v-3.229c0-4.844,2.987-7.992,7.815-7.992a42.621,42.621,0,0,1,4.263.226.807.807,0,0,1,.727.807v4.844a.823.823,0,0,1-.807.807h-2.874c-1.711,0-1.889.549-1.889,1.824v2.664h4.569a.807.807,0,0,1,.614.274.759.759,0,0,1,.194.63l-.694,5.441a.824.824,0,0,1-.807.71h-3.875v2.357a.807.807,0,1,1-1.615,0v-3.229a.807.807,0,0,1,.807-.807h3.972l.5-3.827h-4.472a.807.807,0,0,1-.807-.807V163.27c0-1.615.4-3.439,3.5-3.439h2.067V156.5c-1.1-.1-2.212-.145-3.229-.145h-.129c-3.891,0-6.2,2.39-6.2,6.378v4a.807.807,0,0,1-.807.807h-3.875v3.794h3.875a.807.807,0,0,1,.807.807v13.127h4v-5.118a.807.807,0,0,1,1.615,0v5.926A.807.807,0,0,1,488.358,186.859Z" transform="translate(-477.25 -154.68)" fill="#dcdfe5"/>
</svg>
