<svg id="home" xmlns="http://www.w3.org/2000/svg" width="27.974" height="24" viewBox="0 0 27.974 24">
  <path id="Path_1072" data-name="Path 1072" d="M45.387,255.986h-5.4a.7.7,0,0,1-.7-.7V252.3a1.835,1.835,0,0,0-3.669,0v2.98a.7.7,0,0,1-.7.7H29.489a2.108,2.108,0,0,1-2.108-2.108v-7.253H24.2a.7.7,0,0,1-.506-1.195l5.623-5.623a.706.706,0,1,1,1,1l-4.484,4.47h2.249a.7.7,0,0,1,.7.7v7.956a.7.7,0,0,0,.7.7h4.723v-2.277a3.247,3.247,0,0,1,6.48,0v2.277h4.695a.7.7,0,0,0,.7-.7v-7.647a.7.7,0,0,1,.7-.7H49.07L37.178,233.678l-3.486,3.486a.7.7,0,0,1-1,0,.717.717,0,0,1,0-1l3.978-3.978a.717.717,0,0,1,1,0L51.263,245.8a.689.689,0,0,1,.155.759.7.7,0,0,1-.647.436H47.5v6.944A2.108,2.108,0,0,1,45.387,255.986Z" transform="translate(-23.497 -231.986)" fill="#fff"/>
  <path id="Path_1073" data-name="Path 1073" d="M40.2,243.055a.361.361,0,0,1-.271-.105l-6.512-6.512a.377.377,0,0,1,0-.543.392.392,0,0,1,.528,0l6.527,6.527a.37.37,0,0,1-.271.633Z" transform="translate(-19.838 -230.594)" fill="#fff"/>
</svg>
