<svg xmlns="http://www.w3.org/2000/svg" viewBox="0 0 86.85 72.9"><defs><style>.cls-1,.cls-2{fill:#43bc95;}.cls-2{opacity:0.2;}.cls-3{fill:#fff;}.cls-3,.cls-4{stroke:#231f20;stroke-linecap:round;stroke-linejoin:round;}.cls-4{fill:none;}.cls-5{fill:#231f20;}.cls-6{fill:#c93a5c;}</style></defs><title>Asset 15</title><g id="Layer_2" data-name="Layer 2"><g id="Layer_1-2" data-name="Layer 1"><path class="cls-1" d="M86.41,48.49l-3.92.66-.57.1c-.16,0-.33.19-.29.36s.28.2.43.17L86,49.11l.57-.09a.35.35,0,0,0,.29-.37c0-.19-.28-.19-.43-.16Z"/><path class="cls-1" d="M84.74,41.39l-4.39,4.38-.63.62c-.1.11-.08.21.07.24a.62.62,0,0,0,.51-.13l4.39-4.38.63-.63c.1-.1.08-.2-.07-.23a.62.62,0,0,0-.51.13Z"/><path class="cls-1" d="M79.66,40.84,77.9,45l-.25.6c-.16.38.56.37.69.08l1.76-4.19.26-.59c.16-.38-.57-.38-.7-.08Z"/><path class="cls-1" d="M73.19,68.36l-.56,3.46-.07.49c0,.15.06.21.19.14a.75.75,0,0,0,.3-.44l.55-3.46.08-.5c0-.14-.07-.21-.19-.13a.65.65,0,0,0-.3.44Z"/><path class="cls-1" d="M76.35,68.47l.5,3.77.08.55c0,.17.2.11.3,0a.59.59,0,0,0,.23-.46L77,68.59l-.08-.54c0-.17-.2-.12-.3,0a.61.61,0,0,0-.23.47Z"/><path class="cls-2" d="M4.65,21.18c.07-3,.24-10.73,5-12.68C13.71,6.81,20,10,21.31,13.89c.54,1.56-.09,2.16.61,3.7C23.2,20.42,27,22.17,30.32,22c5.48-.25,9-5.8,10.29-7.77,2.8-4.38,1.67-6.15,4.29-8.89A13.51,13.51,0,0,1,56.11,1.61C65,2.87,68.66,14,69,15.05c4.26,13.71-7.46,26.51-8.27,27.36-8.82,9.35-25.09,15.17-39.06,8.07C9.42,44.24,4.43,30.85,4.65,21.18Z"/><path class="cls-3" d="M49.28,31.93V29.19a9.8,9.8,0,0,0-19.59,0V47.78c0,.27,0,.53,0,.78a20.89,20.89,0,0,0,19.49.27c0-.34.06-.69.06-1Z"/><path class="cls-3" d="M48,24.35l6.8,13.14a.22.22,0,0,1-.19.32H47.2"/><path class="cls-4" d="M29.69,48.12A29.91,29.91,0,0,0,14,65.06"/><path class="cls-4" d="M64.92,62.43c-.18-1.25-2.53-10.22-15.64-13.65"/><path class="cls-4" d="M30.72,52.21a14.5,14.5,0,0,0,3.88,4.23c2.17,1.57,6,3.43,7.53,2.12,1.13-1,.31-3.43,1.06-3.65.57-.17,1,1.25,2.47,2s4.19.81,5.06-.7a3.57,3.57,0,0,0-.59-3.65"/><path class="cls-3" d="M37,30.44a1.95,1.95,0,0,0,3.55-.15"/><path class="cls-4" d="M37.28,37.13a7.17,7.17,0,0,0,12,4.5"/><polygon class="cls-3" points="28.57 16.58 41.1 12.96 43.22 17.72 53.7 16.58 54.16 17.72 22.48 32.67 21.87 30.52 28.57 22.81 28.57 16.58"/><circle class="cls-3" cx="20.09" cy="21.18" r="1.78"/><circle class="cls-3" cx="14.68" cy="15.85" r="2.89"/><path class="cls-3" d="M14.19,5.05A6.23,6.23,0,0,0,2,6.43Z"/><rect class="cls-3" x="0.46" y="7.39" width="15.47" height="2.41" rx="1.21" transform="translate(-0.91 0.97) rotate(-6.43)"/><circle class="cls-5" cx="5.83" cy="3.73" r="0.27"/><circle class="cls-5" cx="7.81" cy="2.59" r="0.27"/><circle class="cls-5" cx="10.02" cy="3.73" r="0.27"/><rect class="cls-1" x="69.5" y="47.82" width="11.13" height="17.54" rx="5.57"/><path class="cls-6" d="M76,59.26a1.49,1.49,0,0,1-1-.43L72.18,56a.49.49,0,0,1,.69-.69l2.81,2.81a.47.47,0,0,0,.69,0l6-6a.49.49,0,0,1,.69.69l-6,6A1.51,1.51,0,0,1,76,59.26Z"/></g></g></svg>