<svg xmlns="http://www.w3.org/2000/svg" width="33.971" height="33.971" viewBox="0 0 33.971 33.971">
  <g id="Group_636" data-name="Group 636" transform="translate(-94.462 -735.029)">
    <path id="Path_1212" data-name="Path 1212" d="M446.547,190.931H430.724a9.074,9.074,0,0,1-9.074-9.074v-5.07a.807.807,0,0,1,1.615,0v5.07a7.459,7.459,0,0,0,7.459,7.459h15.823a7.459,7.459,0,0,0,7.459-7.459V166.034a7.459,7.459,0,0,0-7.459-7.459H430.724a7.459,7.459,0,0,0-7.459,7.459v3.988a.807.807,0,1,1-1.615,0v-3.988a9.074,9.074,0,0,1,9.074-9.074h15.823a9.074,9.074,0,0,1,9.074,9.074v15.823a9.074,9.074,0,0,1-9.074,9.074Z" transform="translate(-327.188 578.069)" fill="#dcdfe5"/>
    <path id="Path_1213" data-name="Path 1213" d="M442.334,184.219H431.225a6.555,6.555,0,0,1-6.555-6.555V166.555A6.555,6.555,0,0,1,431.225,160h11.109a6.539,6.539,0,0,1,6.539,6.555v11.108a6.539,6.539,0,0,1-6.539,6.555Zm-11.109-22.6a4.941,4.941,0,0,0-4.941,4.941v11.109a4.941,4.941,0,0,0,4.941,4.941h11.109a4.941,4.941,0,0,0,4.925-4.941V166.555a4.941,4.941,0,0,0-4.924-4.941Z" transform="translate(-325.331 579.937)" fill="#dcdfe5"/>
    <path id="Path_1214" data-name="Path 1214" d="M434.154,174.641a5.151,5.151,0,1,1,5.167-5.151,5.151,5.151,0,0,1-5.167,5.151Zm0-8.687a3.536,3.536,0,1,0,3.552,3.536A3.536,3.536,0,0,0,434.154,165.955Z" transform="translate(-322.658 582.604)" fill="#dcdfe5"/>
  </g>
</svg>
