<svg xmlns="http://www.w3.org/2000/svg" xmlns:xlink="http://www.w3.org/1999/xlink" width="50" height="50" viewBox="0 0 50 50">
  <defs>
    <filter id="Ellipse_10" x="0" y="0" width="50" height="50" filterUnits="userSpaceOnUse">
      <feOffset input="SourceAlpha"/>
      <feGaussianBlur stdDeviation="3" result="blur"/>
      <feFlood flood-opacity="0.161"/>
      <feComposite operator="in" in2="blur"/>
      <feComposite in="SourceGraphic"/>
    </filter>
  </defs>
  <g id="go_back" data-name="go back" transform="translate(9 9)">
    <g id="go_back-icon" data-name="go back-icon" transform="translate(-11 -94)">
      <g transform="matrix(1, 0, 0, 1, 2, 85)" filter="url(#Ellipse_10)">
        <circle id="Ellipse_10-2" data-name="Ellipse 10" cx="16" cy="16" r="16" transform="translate(9 9)" fill="#fff" opacity="0.8"/>
      </g>
    </g>
    <path id="Path_1106" data-name="Path 1106" d="M433.7,331.131a.7.7,0,0,1-.454-.182l-5.433-5.433a1.958,1.958,0,0,1,0-2.749l5.563-5.563a.648.648,0,0,1,.921,0,.622.622,0,0,1,0,.908l-5.563,5.563a.661.661,0,0,0,0,.921l5.433,5.433a.661.661,0,0,1,0,.921.7.7,0,0,1-.467.182Z" transform="translate(-417.131 -307.812)" fill="#07c1f6"/>
  </g>
</svg>
