<svg xmlns="http://www.w3.org/2000/svg" width="16.76" height="19.937" viewBox="0 0 16.76 19.937">
  <g id="Group_629" data-name="Group 629" transform="translate(-296.73 -99.423)">
    <path id="Path_1131" data-name="Path 1131" d="M536.19,37.36a.5.5,0,0,1-.35-.15L533,34.42a.5.5,0,1,1,.7-.71l2.48,2.44,4.86-4.85a7.37,7.37,0,1,0-12.31-5.47,7.28,7.28,0,0,0,2.32,5.36.5.5,0,0,1-.69.73,8.28,8.28,0,0,1-2.63-6.09,8.38,8.38,0,1,1,14,6.19l-5.19,5.19A.51.51,0,0,1,536.19,37.36Z" transform="translate(-231 82)" fill="#07c1f6"/>
    <path id="Path_1132" data-name="Path 1132" d="M536.11,28.37a2.54,2.54,0,1,1,2.53-2.54,2.54,2.54,0,0,1-2.53,2.54Zm0-4.57a2,2,0,1,0,2,2,2,2,0,0,0-2-2Z" transform="translate(-231 82)" fill="#07c1f6"/>
  </g>
</svg>
