<svg xmlns="http://www.w3.org/2000/svg" width="20.04" height="13.823" viewBox="0 0 20.04 13.823">
  <g id="email" transform="translate(0 0)">
    <g id="Group_628" data-name="Group 628" transform="translate(3016.9 -566.337)">
      <path id="Path_1018" data-name="Path 1018" d="M616.1,18.84a.5.5,0,0,0-.85-.36l-9,8.8-7.93-7.92h13.44a.51.51,0,0,0,.5-.5.5.5,0,0,0-.5-.5H597.12a.51.51,0,0,0-.47.3.53.53,0,0,0,.11.55l9.13,9.13a.5.5,0,0,0,.7,0L615.1,20V31.16h-18v-8.4a.5.5,0,1,0-1,0v8.9a.51.51,0,0,0,.5.5h19A.55.55,0,0,0,616,32a.5.5,0,0,0,.14-.35Z" transform="translate(-3613 548)" fill="#c9bf1c"/>
      <path id="Path_1019" data-name="Path 1019" d="M602,21a.25.25,0,0,0,0,.36l3.49,3.49a.24.24,0,0,0,.18.07.22.22,0,0,0,.17-.07.25.25,0,0,0,0-.36L602.33,21a.26.26,0,0,0-.33,0Z" transform="translate(-3613 548)" fill="#c9bf1c"/>
    </g>
  </g>
</svg>
