<svg id="market" xmlns="http://www.w3.org/2000/svg" width="10.84" height="10.85" viewBox="0 0 10.84 10.85">
  <g id="Group_625" data-name="Group 625">
    <path id="Path_1109" data-name="Path 1109" d="M69.385,31.521a.273.273,0,0,0-.273.273v2.432a.546.546,0,0,1-.546.547H59.878a.546.546,0,0,1-.546-.547V29.794a1.961,1.961,0,0,0,3.109-.361,1.956,1.956,0,0,0,3.377,0,1.94,1.94,0,0,0,.6.634,2,2,0,0,0,1.9.169,1.951,1.951,0,0,0,1.158-1.848.246.246,0,0,0-.038-.137L67.6,25.017a1.136,1.136,0,0,0-.929-.547H61.752a1.136,1.136,0,0,0-.912.514L59.747,26.8a.273.273,0,0,0,.464.284L61.3,25.268a.606.606,0,0,1,.448-.251h4.917a.612.612,0,0,1,.453.29l1.8,3.176a1.388,1.388,0,0,1-.82,1.274,1.469,1.469,0,0,1-1.388-.12,1.416,1.416,0,0,1-.628-1.175.273.273,0,1,0-.546,0,1.415,1.415,0,0,1-2.792.18v-.2a.273.273,0,1,0-.546,0,1.132,1.132,0,0,1,0,.191,1.415,1.415,0,0,1-2.819-.191.273.273,0,1,0-.546,0v5.788a1.093,1.093,0,0,0,1.093,1.093h8.655a1.093,1.093,0,0,0,1.093-1.093V31.794a.273.273,0,0,0-.3-.273Z" transform="translate(-58.84 -24.47)" fill="#909399"/>
  </g>
</svg>
