<svg xmlns="http://www.w3.org/2000/svg" width="17.84" height="17.85" viewBox="0 0 17.84 17.85">
  <g id="market" transform="translate(0)">
    <g id="Group_625" data-name="Group 625" transform="translate(0 0)">
      <path id="Path_1109" data-name="Path 1109" d="M76.194,36.07a.45.45,0,0,0-.45.45v4a.9.9,0,0,1-.9.9h-14.3a.9.9,0,0,1-.9-.9V33.229a3.228,3.228,0,0,0,5.116-.594,3.219,3.219,0,0,0,5.557,0,3.192,3.192,0,0,0,.98,1.043,3.3,3.3,0,0,0,3.129.279,3.21,3.21,0,0,0,1.906-3.039.4.4,0,0,0-.063-.225l-3.021-5.324a1.87,1.87,0,0,0-1.529-.9H63.633a1.87,1.87,0,0,0-1.5.845l-1.8,2.985a.45.45,0,0,0,.764.468l1.8-2.985a1,1,0,0,1,.737-.414h8.093a1.007,1.007,0,0,1,.746.477l2.967,5.225a2.284,2.284,0,0,1-1.349,2.1,2.419,2.419,0,0,1-2.284-.2,2.329,2.329,0,0,1-1.034-1.933.45.45,0,1,0-.9,0,2.329,2.329,0,0,1-4.595.3V31a.45.45,0,1,0-.9,0,1.862,1.862,0,0,1,0,.315A2.329,2.329,0,0,1,59.739,31a.45.45,0,1,0-.9,0v9.523a1.8,1.8,0,0,0,1.8,1.8H74.882a1.8,1.8,0,0,0,1.8-1.8v-4a.45.45,0,0,0-.486-.45Z" transform="translate(-58.84 -24.47)" fill="#07c1f6"/>
    </g>
    <path id="Path_1111" data-name="Path 1111" d="M62.93,39.51a.25.25,0,0,0,.5,0,1.64,1.64,0,1,1,3.27,0,.25.25,0,0,0,.5,0,2.14,2.14,0,1,0-4.27,0Z" transform="translate(-59.365 -25.943)" fill="#07c1f6"/>
    <path id="Path_1112" data-name="Path 1112" d="M72.36,37.37a2.14,2.14,0,0,0-2.13,2.14.25.25,0,0,0,.5,0,1.64,1.64,0,1,1,3.27,0,.25.25,0,1,0,.5,0,2.14,2.14,0,0,0-2.14-2.14Z" transform="translate(-60.303 -25.948)" fill="#07c1f6"/>
  </g>
</svg>
