<svg xmlns="http://www.w3.org/2000/svg" width="18.521" height="18.53" viewBox="0 0 18.521 18.53">
  <path id="Path_1207" data-name="Path 1207" d="M76.857,36.512a.467.467,0,0,0-.467.467v4.154a.934.934,0,0,1-.934.934H60.614a.934.934,0,0,1-.934-.934V33.562a3.351,3.351,0,0,0,5.312-.616,3.342,3.342,0,0,0,5.769,0,3.314,3.314,0,0,0,1.018,1.083,3.426,3.426,0,0,0,3.249.289,3.333,3.333,0,0,0,1.979-3.155.42.42,0,0,0-.065-.233L73.8,25.4a1.942,1.942,0,0,0-1.587-.934h-8.4a1.942,1.942,0,0,0-1.559.877l-1.867,3.1a.467.467,0,0,0,.793.485l1.867-3.1a1.036,1.036,0,0,1,.765-.429h8.4a1.045,1.045,0,0,1,.775.495l3.081,5.424a2.371,2.371,0,0,1-1.4,2.175,2.511,2.511,0,0,1-2.371-.205,2.418,2.418,0,0,1-1.074-2.007.467.467,0,0,0-.934,0,2.418,2.418,0,0,1-4.77.308v-.345a.467.467,0,0,0-.934,0,1.932,1.932,0,0,1,0,.327,2.418,2.418,0,0,1-4.817-.327.467.467,0,0,0-.934,0v9.886A1.867,1.867,0,0,0,60.707,43H75.494a1.867,1.867,0,0,0,1.867-1.867V36.979a.467.467,0,0,0-.5-.467Z" transform="translate(-58.84 -24.47)" fill="#f2f5fc"/>
</svg>
