<svg id="order" xmlns="http://www.w3.org/2000/svg" width="30.119" height="19" viewBox="0 0 30.119 19">
  <path id="Path_1098" data-name="Path 1098" d="M229.57,253.232H200.914a.769.769,0,0,1-.754-.754v-3.514a.754.754,0,0,1,1.508,0v2.79h27.043a2.79,2.79,0,0,0-2.685-2.036h-22.4a.754.754,0,0,1-.754-.754,12.367,12.367,0,0,1,9.2-11.9,3.258,3.258,0,0,1,6.47.09,12.232,12.232,0,0,1,8.491,8.687.779.779,0,1,1-1.508.392,10.754,10.754,0,0,0-7.948-7.767.739.739,0,0,1-.588-.724v-.3a1.75,1.75,0,1,0-3.484,0,.785.785,0,0,1-.106.407l-.181.271a.754.754,0,0,1-.468.332,10.829,10.829,0,0,0-8.386,9.758h21.613a4.3,4.3,0,0,1,4.3,4.3A.754.754,0,0,1,229.57,253.232Z" transform="translate(-200.16 -234.232)" fill="#fff"/>
  <path id="Path_1099" data-name="Path 1099" d="M216.189,243.264a.31.31,0,0,1-.3-.22,6.651,6.651,0,0,0-3.507-3.882.327.327,0,1,1,.272-.6,7.363,7.363,0,0,1,3.882,4.205.3.3,0,0,1-.194.4Z" transform="translate(-193.522 -231.668)" fill="#fff"/>
</svg>
