<svg id="filter" xmlns="http://www.w3.org/2000/svg" width="23.831" height="24" viewBox="0 0 23.831 24">
  <path id="Path_1078" data-name="Path 1078" d="M131.581,246.78h-8.815a.605.605,0,0,0-.605.605.618.618,0,0,0,.605.605h8.815a.605.605,0,1,0,0-1.211Z" transform="translate(-108.355 -227.273)" fill="#fff"/>
  <path id="Path_1079" data-name="Path 1079" d="M118.164,244a3.911,3.911,0,0,0-3.863,3.378h-3.076a.605.605,0,1,0,0,1.211h3.088a3.911,3.911,0,1,0,3.851-4.553Zm0,6.636a2.712,2.712,0,1,1,2.712-2.712,2.712,2.712,0,0,1-2.712,2.712Z" transform="translate(-110.62 -227.859)" fill="#fff"/>
  <path id="Path_1080" data-name="Path 1080" d="M122.765,234.521h8.815a.605.605,0,1,0,0-1.211h-8.815a.605.605,0,0,0-.605.605A.618.618,0,0,0,122.765,234.521Z" transform="translate(-108.355 -229.944)" fill="#fff"/>
  <path id="Path_1081" data-name="Path 1081" d="M118.164,230.53a3.911,3.911,0,0,0-3.863,3.378h-3.076a.605.605,0,1,0,0,1.211h3.088a3.911,3.911,0,1,0,3.851-4.553Zm0,6.624a2.7,2.7,0,1,1,1.917-.787,2.712,2.712,0,0,1-1.917.787Z" transform="translate(-110.62 -230.53)" fill="#fff"/>
  <path id="Path_1082" data-name="Path 1082" d="M111.225,241.211h8.815a.605.605,0,1,0,0-1.211h-8.815a.605.605,0,1,0,0,1.211Z" transform="translate(-110.62 -228.618)" fill="#fff"/>
  <path id="Path_1083" data-name="Path 1083" d="M131.836,240.578h-3.088a3.923,3.923,0,1,0,0,1.211h3.076a.606.606,0,0,0,.012-1.211Zm-6.939,3.354a2.694,2.694,0,1,0,0-.036Z" transform="translate(-108.61 -229.195)" fill="#fff"/>
</svg>
