<svg id="filter_selected" data-name="filter selected" xmlns="http://www.w3.org/2000/svg" width="24" height="22.947" viewBox="0 0 24 22.947">
  <path id="Path_1100" data-name="Path 1100" d="M131.581,319.64h-8.815a.605.605,0,0,0-.605.605.618.618,0,0,0,.605.605h8.815a.605.605,0,1,0,0-1.211Z" transform="translate(-108.186 -300.568)" fill="#fff"/>
  <path id="Path_1101" data-name="Path 1101" d="M118.155,317.36a3.33,3.33,0,0,0-3.257,2.761h-3.633a.605.605,0,0,0,0,1.211H114.9a3.318,3.318,0,1,0,3.245-3.972Z" transform="translate(-110.612 -301.049)" fill="#fff"/>
  <path id="Path_1102" data-name="Path 1102" d="M122.765,307.381h8.815a.605.605,0,1,0,0-1.211h-8.815a.605.605,0,0,0-.605.605A.618.618,0,0,0,122.765,307.381Z" transform="translate(-108.186 -303.409)" fill="#fff"/>
  <path id="Path_1103" data-name="Path 1103" d="M118.155,303.89a3.33,3.33,0,0,0-3.257,2.761h-3.633a.605.605,0,1,0,0,1.211H114.9a3.318,3.318,0,1,0,3.245-3.972Z" transform="translate(-110.612 -303.89)" fill="#fff"/>
  <path id="Path_1104" data-name="Path 1104" d="M111.225,314.041h8.815a.605.605,0,1,0,0-1.211h-8.815a.605.605,0,1,0,0,1.211Z" transform="translate(-110.62 -302.005)" fill="#fff"/>
  <path id="Path_1105" data-name="Path 1105" d="M124.788,317.256a3.306,3.306,0,0,0,3.257-2.749h3.633a.605.605,0,0,0,0-1.211h-3.633a3.318,3.318,0,1,0-3.245,3.96Z" transform="translate(-108.331 -302.471)" fill="#fff"/>
</svg>
