<svg id="menu" xmlns="http://www.w3.org/2000/svg" width="19" height="14.99" viewBox="0 0 19 14.99">
  <path id="Path_1005" data-name="Path 1005" d="M551.247,113.46H533.513a.514.514,0,1,1,0-1h17.733a.514.514,0,1,1,0,1Z" transform="translate(-532.88 -112.46)" fill="#07c1f6"/>
  <path id="Path_1006" data-name="Path 1006" d="M551.247,120.46H533.513a.514.514,0,1,1,0-1h17.733a.579.579,0,0,1,.633.5.59.59,0,0,1-.633.5Z" transform="translate(-532.88 -112.46)" fill="#07c1f6"/>
  <path id="Path_1007" data-name="Path 1007" d="M551.247,127.45H533.513a.514.514,0,1,1,0-1h17.733a.59.59,0,0,1,.633.5A.579.579,0,0,1,551.247,127.45Z" transform="translate(-532.88 -112.46)" fill="#07c1f6"/>
</svg>
