<svg xmlns="http://www.w3.org/2000/svg" width="28.121" height="24" viewBox="0 0 28.121 24">
  <g id="Group_614" data-name="Group 614" transform="translate(3589 -853.31)">
    <g id="home-selected" transform="translate(-3589 853.31)">
      <path id="Path_1084" data-name="Path 1084" d="M33.508,309.521l4.226-4.211,14.388,14.418H47.911v8.094a1.488,1.488,0,0,1-1.488,1.488H40.709v-3.184a2.648,2.648,0,0,0-2.648-2.648h-.074a2.648,2.648,0,0,0-2.634,2.648v3.154H29.595a1.488,1.488,0,0,1-1.488-1.488v-8.422H24l5.952-5.952" transform="translate(-24 -305.31)" fill="#fff"/>
    </g>
    <path id="Path_1085" data-name="Path 1085" d="M37.88,313.72a.54.54,0,0,1-.36-.14l-4.32-4.33a.5.5,0,0,1,.71-.7l4.32,4.32a.5.5,0,0,1,0,.71.52.52,0,0,1-.35.14Z" transform="translate(-3606.849 550.251)" fill="#091c3f"/>
  </g>
</svg>
