<svg xmlns="http://www.w3.org/2000/svg" viewBox="0 0 113.33 94.49"><defs><style>.cls-1{fill:#909399;opacity:0.2;}.cls-2{fill:#fff;}.cls-2,.cls-3{stroke:#231f20;stroke-linecap:round;stroke-linejoin:round;}.cls-3{fill:none;}</style></defs><title>Asset 12</title><g id="Layer_2" data-name="Layer 2"><g id="Layer_1-2" data-name="Layer 1"><path class="cls-1" d="M92.82,94.31c1.8-.22,11.1-1.36,16.66-9.07,5.9-8.19,3.42-18,2.84-20.32-2.37-9.43-9.16-15-12.25-17.4-11.41-9-19.67-5.46-23.9-12.83-3.88-6.78,2-11.69-1.61-20.43C71.5,6.88,63.45,1.06,55.68.13c-16.29-1.94-28.75,18-35.64,29-5.64,9-12,19.1-8.49,29.2,2.51,7.27,8.92,11.11,14.26,14.32,12.42,7.45,17.28,3.6,33.88,9.26C77.89,88.08,81,95.77,92.82,94.31Z"/><path class="cls-2" d="M64.54,47.59s0-.08,0-.12a2.61,2.61,0,0,0-5.21,0s0,.08,0,.12A29.46,29.46,0,0,0,32.49,76.26H91.4A29.46,29.46,0,0,0,64.54,47.59Z"/><rect class="cls-2" x="28.46" y="76.48" width="67.59" height="4.79" rx="2.4"/><path class="cls-3" d="M67.68,53A24.14,24.14,0,0,1,83.12,64.43"/><circle class="cls-2" cx="38.13" cy="46.57" r="3.21"/><circle class="cls-2" cx="28.46" cy="33.02" r="7.12"/><circle class="cls-2" cx="10.92" cy="13.72" r="10.42"/></g></g></svg>