<svg xmlns="http://www.w3.org/2000/svg" viewBox="0 0 90.53 71.1"><defs><style>.cls-1,.cls-4{fill:#c8bf2e;}.cls-1{opacity:0.18;}.cls-2{fill:#fff;}.cls-3{fill:#231f20;}.cls-5{fill:#c93a5c;}</style></defs><title>Asset 16</title><g id="Layer_2" data-name="Layer 2"><g id="Layer_1-2" data-name="Layer 1"><path class="cls-1" d="M11.41,24c2.15-2.67-4.87-8.24-3.6-14.81,1-4.92,6.3-9.12,11-9.21,2.76,0,5,1.32,8.4,3.4,4.8,2.94,5.26,4.94,8.41,5.41,2.72.41,5-.68,7.4-1.8,4.36-2,4.54-3.86,7.21-5,5.26-2.25,12.28,1.46,16,4.81,5.71,5.12,6.57,12,7,15.41a32.51,32.51,0,0,1-2.6,16.61c-1.72,4.39-3.53,9-8.21,12.61-4.94,3.79-10.21,4.2-15.41,4.61-6,.47-12.87,1-18.42-3C22.78,48.82,24,43.61,19,42c-5.21-1.65-8.48,3.51-13.41,1.41A10.15,10.15,0,0,1,5,25.62C8.1,23.93,10.24,25.47,11.41,24Z"/><rect class="cls-2" x="27.49" y="18.39" width="36.71" height="46.59" rx="4.71"/><path class="cls-3" d="M59.49,65.48H32.19A5.21,5.21,0,0,1,27,60.27V23.09a5.2,5.2,0,0,1,5.2-5.2h27.3a5.2,5.2,0,0,1,5.2,5.2V60.27A5.21,5.21,0,0,1,59.49,65.48ZM32.19,18.89a4.21,4.21,0,0,0-4.2,4.2V60.27a4.21,4.21,0,0,0,4.2,4.21h27.3a4.21,4.21,0,0,0,4.2-4.21V23.09a4.21,4.21,0,0,0-4.2-4.2Z"/><path class="cls-3" d="M55.31,40.22h-19a.51.51,0,0,1-.5-.5V37.37a.5.5,0,0,1,.5-.5.5.5,0,0,1,.5.5v1.85H54.74A1.85,1.85,0,0,0,53,37.87H38.11a.5.5,0,0,1-.5-.5,8.21,8.21,0,0,1,6.1-7.89,2.15,2.15,0,0,1,4.28.06,8.14,8.14,0,0,1,5.64,5.76.5.5,0,0,1-1,.26,7.13,7.13,0,0,0-5.27-5.15.49.49,0,0,1-.39-.48v-.2a1.16,1.16,0,1,0-2.31,0,.52.52,0,0,1-.07.27l-.12.18a.5.5,0,0,1-.31.22,7.18,7.18,0,0,0-5.56,6.47H53a2.85,2.85,0,0,1,2.85,2.85A.5.5,0,0,1,55.31,40.22Z"/><path class="cls-3" d="M50.93,35.58a.23.23,0,0,1-.23-.17A5.17,5.17,0,0,0,48,32.46a.25.25,0,1,1,.2-.46,5.67,5.67,0,0,1,3,3.25.23.23,0,0,1-.15.31Z"/><path class="cls-3" d="M56.6,45.59H35.08a.5.5,0,0,1-.5-.5.5.5,0,0,1,.5-.5H56.6a.5.5,0,0,1,.5.5A.5.5,0,0,1,56.6,45.59Z"/><path class="cls-3" d="M56.6,51H35.08a.5.5,0,0,1-.5-.5.5.5,0,0,1,.5-.5H56.6a.5.5,0,0,1,.5.5A.5.5,0,0,1,56.6,51Z"/><path class="cls-3" d="M56.6,56.35H35.08a.5.5,0,0,1,0-1H56.6a.5.5,0,0,1,0,1Z"/><rect class="cls-2" x="36.16" y="15.33" width="3.53" height="7.06" rx="1.65"/><path class="cls-3" d="M38,22.89h-.22a2.16,2.16,0,0,1-2.16-2.16V17a2.16,2.16,0,0,1,2.16-2.15H38A2.15,2.15,0,0,1,40.19,17v3.75A2.16,2.16,0,0,1,38,22.89Zm-.22-7.06A1.16,1.16,0,0,0,36.66,17v3.75a1.16,1.16,0,0,0,1.16,1.16H38a1.15,1.15,0,0,0,1.15-1.16V17A1.15,1.15,0,0,0,38,15.83Z"/><rect class="cls-2" x="44.07" y="15.33" width="3.53" height="7.06" rx="1.65"/><path class="cls-3" d="M46,22.89h-.22a2.16,2.16,0,0,1-2.15-2.16V17a2.15,2.15,0,0,1,2.15-2.15H46A2.15,2.15,0,0,1,48.1,17v3.75A2.16,2.16,0,0,1,46,22.89Zm-.22-7.06A1.15,1.15,0,0,0,44.58,17v3.75a1.15,1.15,0,0,0,1.15,1.16H46a1.15,1.15,0,0,0,1.15-1.16V17A1.15,1.15,0,0,0,46,15.83Z"/><rect class="cls-2" x="51.99" y="15.33" width="3.53" height="7.06" rx="1.65"/><path class="cls-3" d="M53.86,22.89h-.22a2.16,2.16,0,0,1-2.15-2.16V17a2.15,2.15,0,0,1,2.15-2.15h.22A2.15,2.15,0,0,1,56,17v3.75A2.16,2.16,0,0,1,53.86,22.89Zm-.22-7.06A1.15,1.15,0,0,0,52.49,17v3.75a1.15,1.15,0,0,0,1.15,1.16h.22A1.15,1.15,0,0,0,55,20.73V17a1.15,1.15,0,0,0-1.15-1.15Z"/><path class="cls-4" d="M15.78,5.51c-1.95,1.21-2.84,3.69-2.95,5.89a11.09,11.09,0,0,0,1.39,6.42C16.13,20.69,20,21.16,23.05,20a6.39,6.39,0,0,0,4.08-4.19c0-.14-.66-.05-.71.13a6.31,6.31,0,0,1-7.06,4.31,6.45,6.45,0,0,1-4.57-2.86,10.86,10.86,0,0,1-1.24-5.25c-.06-2.35.65-5.28,2.78-6.6.3-.19-.42-.1-.55,0Z"/><path class="cls-4" d="M27.87,10.29C25.68,8.45,22.94,11,22,13a18.18,18.18,0,0,0-1.47,11.48A12.79,12.79,0,0,0,27,33.24a18.31,18.31,0,0,0,9.63,1.58c.19,0,.78-.33.31-.29A17.81,17.81,0,0,1,28,33.15a12.34,12.34,0,0,1-6-6.38,16.47,16.47,0,0,1-.79-9.72,16.83,16.83,0,0,1,1.44-4.2c.77-1.53,2.68-3.85,4.52-2.32.14.13.79-.15.68-.24Z"/><path class="cls-4" d="M18,23.87a10.62,10.62,0,0,0,.44,3.5,10.69,10.69,0,0,0,4.17,5.36c.19.13.84-.15.68-.27a10.5,10.5,0,0,1-4.16-5.37,10.63,10.63,0,0,1-.4-3.41c0-.18-.73-.07-.73.19Z"/><circle class="cls-2" cx="76.44" cy="61.9" r="8.71"/><path class="cls-4" d="M76.44,71.1a9.21,9.21,0,1,1,9.21-9.2A9.21,9.21,0,0,1,76.44,71.1Zm0-17.41a8.21,8.21,0,1,0,8.21,8.21A8.21,8.21,0,0,0,76.44,53.69Z"/><circle class="cls-4" cx="76.44" cy="61.9" r="5.76"/><path class="cls-4" d="M90.09,55.2l-3.92.66-.56.1c-.16,0-.34.19-.3.36s.29.2.44.17l3.92-.67.56-.09c.16,0,.34-.2.3-.37s-.29-.19-.44-.16Z"/><path class="cls-4" d="M88.43,48.1,84,52.48l-.63.62c-.11.11-.09.21.06.24A.6.6,0,0,0,84,53.2l4.39-4.37L89,48.2c.11-.1.09-.2-.06-.24a.67.67,0,0,0-.51.14Z"/><path class="cls-4" d="M83.35,47.55l-1.77,4.18-.25.6c-.16.37.57.37.69.08l1.77-4.19.25-.59c.16-.38-.57-.38-.69-.08Z"/><path class="cls-5" d="M76.48,64.64a1.45,1.45,0,0,1-1-.43L72.63,61.4a.49.49,0,0,1,0-.69.47.47,0,0,1,.69,0l2.81,2.81a.5.5,0,0,0,.7,0l6-6a.49.49,0,0,1,.69,0,.5.5,0,0,1,0,.7l-6,6A1.45,1.45,0,0,1,76.48,64.64Z"/></g></g></svg>