<svg id="order_history" data-name="order history" xmlns="http://www.w3.org/2000/svg" width="14.82" height="20" viewBox="0 0 14.82 20">
  <path id="Path_1147" data-name="Path 1147" d="M612.25,82.21a.51.51,0,0,1-.5-.5V63.22H598.93v18h9.29a.5.5,0,0,0,.5-.5v-1a.5.5,0,0,0-.5-.5h-5.73a1.5,1.5,0,0,1-1.5-1.5v-1a1.5,1.5,0,0,1,1.5-1.5h5.79a.5.5,0,0,0,.5-.5v-1a.5.5,0,0,0-.5-.5h-5.87a1.5,1.5,0,0,1-1.5-1.5v-.24a3.89,3.89,0,0,1,2.74-3.67,1.238,1.238,0,0,1,2.39.03,3.88,3.88,0,0,1,2.52,2.71.515.515,0,0,1-1,.25,2.85,2.85,0,0,0-2.13-2.08.5.5,0,0,1-.39-.49c0-.43-.47-.34-.47-.09a.5.5,0,0,1-.07.27.78.78,0,0,1-.37.3,2.91,2.91,0,0,0-2.26,2.82v.24a.51.51,0,0,0,.51.45h5.87a1.5,1.5,0,0,1,1.5,1.5v1a1.5,1.5,0,0,1-1.5,1.5h-5.79a.5.5,0,0,0-.5.5v1a.5.5,0,0,0,.5.5h5.73a1.5,1.5,0,0,1,1.5,1.5v1a1.5,1.5,0,0,1-1.5,1.5H598.4a.5.5,0,0,1-.5-.5v-19a.5.5,0,0,1,.5-.5h13.82a.5.5,0,0,1,.5.5v19A.5.5,0,0,1,612.25,82.21Z" transform="translate(-597.9 -62.22)" fill="#f2f5fc"/>
</svg>
