<svg id="order-selected" xmlns="http://www.w3.org/2000/svg" width="29.92" height="19" viewBox="0 0 29.92 19">
  <path id="Path_1086" data-name="Path 1086" d="M226,320.648a11.712,11.712,0,0,0-9.1-10.5,2.134,2.134,0,0,0,.2-.917,2.233,2.233,0,0,0-.94-2.29,2.2,2.2,0,0,0-2.463,0,2.233,2.233,0,0,0-.94,2.29,2.138,2.138,0,0,0,.145.757,11.706,11.706,0,0,0-10.046,10.831h-.565a2.163,2.163,0,0,0-2.157,2.169v2.577h29.92A5.029,5.029,0,0,0,226,320.648Z" transform="translate(-200.13 -306.569)" fill="#fff"/>
  <path id="Path_1087" data-name="Path 1087" d="M216.2,316.428a.663.663,0,0,1-.6-.421,6.3,6.3,0,0,0-3.289-3.595.625.625,0,0,1-.306-.841.637.637,0,0,1,.841-.319,7.649,7.649,0,0,1,3.965,4.322.65.65,0,0,1-.4.816.6.6,0,0,1-.217.038Z" transform="translate(-194.378 -304.075)" fill="#091c3f"/>
</svg>
