<svg xmlns="http://www.w3.org/2000/svg" viewBox="0 0 79.23 85.54"><defs><style>.cls-1,.cls-5{fill:#c93a5c;}.cls-1{opacity:0.2;}.cls-2{fill:#fff;}.cls-2,.cls-3{stroke:#231f20;stroke-linecap:round;stroke-linejoin:round;}.cls-3{fill:none;}.cls-4{fill:#231f20;}.cls-6{fill:#c8bf2e;}</style></defs><title>Asset 14</title><g id="Layer_2" data-name="Layer 2"><g id="Layer_1-2" data-name="Layer 1"><path class="cls-1" d="M30.52,80.9c16-2.31,13.79-15.65,16.59-22.4,3.34-8,3.29-11.91,6.74-13.79,6.49-3.52,13.08,6.66,18.66,4,7.24-3.42,10.52-27.33,0-40.2C61.71-4.69,42.21.92,35.71,2.79c-6,1.73-23.6,6.78-29,23.54C2.55,39.09-6.65,86.26,30.52,80.9Z"/><path class="cls-2" d="M54.08,34.78V32a9.8,9.8,0,0,0-19.59,0V50.63c0,.26,0,.52,0,.78A21,21,0,0,0,54,51.68a9.24,9.24,0,0,0,.06-1Z"/><path class="cls-2" d="M52.79,27.2,59.6,40.34a.22.22,0,0,1-.2.32H52"/><path class="cls-3" d="M34.49,51A29.88,29.88,0,0,0,18.84,67.91"/><path class="cls-3" d="M69.73,65.28C69.54,64,67.19,55.05,54.08,51.63"/><path class="cls-2" d="M56.08,16A8,8,0,0,0,43.63,9.37a6.22,6.22,0,0,0-11.94,2.45v.1a7.62,7.62,0,0,0-1.18-.1,7.4,7.4,0,1,0,0,14.79l.53,0,1.31,8.29,21.73-5.7-2.2-6.12A8,8,0,0,0,56.08,16Z"/><path class="cls-3" d="M28.08,56.22c2.53,2.11,7.72,7.1,8.85,14.69a20.3,20.3,0,0,1,.2,3.83"/><path class="cls-3" d="M30.09,54c2.75,2.51,9.58,9.43,10.67,19.93a29.19,29.19,0,0,1,.14,3.44"/><circle class="cls-4" cx="41.34" cy="33.88" r="1.74"/><circle class="cls-4" cx="48.84" cy="32.14" r="1.74"/><path class="cls-2" d="M38.2,37.2a7.9,7.9,0,0,0,13.09,7.58"/><path class="cls-2" d="M22.17,42l-4.28,2.52.77,1.32,4.57-2.69,0,.06a1,1,0,0,0,1.79-1.05,1,1,0,0,0-.42-.4,1.35,1.35,0,0,0-.1-1.14A1.37,1.37,0,1,0,22.17,42Z"/><ellipse class="cls-2" cx="16.49" cy="46.1" rx="5.06" ry="3.26" transform="translate(-21.07 14.7) rotate(-30.42)"/><polygon class="cls-2" points="69.99 52.02 67.25 51.02 69.05 47.96 70.57 48.51 69.99 52.02"/><ellipse class="cls-2" cx="70.02" cy="47.98" rx="2.06" ry="3.52" transform="matrix(0.34, -0.94, 0.94, 0.34, 1.06, 97.47)"/><circle class="cls-4" cx="68.63" cy="47.81" r="0.21"/><circle class="cls-4" cx="70.09" cy="47.16" r="0.21"/><circle class="cls-4" cx="71.02" cy="48.56" r="0.21"/><path class="cls-2" d="M16.64,34.31,7,24l5.73-3.7,4.8,13.43A.53.53,0,0,1,16.64,34.31Z"/><ellipse class="cls-2" cx="5.47" cy="20.53" rx="2.5" ry="4.31" transform="translate(-15.07 15.12) rotate(-60.34)"/><ellipse class="cls-2" cx="9.71" cy="19.98" rx="2.52" ry="1.46" transform="translate(-11.03 27.95) rotate(-85.1)"/><line class="cls-2" x1="10.78" y1="26.9" x2="12.53" y2="25.77"/><line class="cls-2" x1="14.19" y1="28.92" x2="15.1" y2="28.33"/><path class="cls-2" d="M11.76,65.72c0,2.47-2.52,4.47-5.63,4.47S.5,68.19.5,65.72s4.14-4.48,7.24-4.48S11.76,63.24,11.76,65.72Z"/><circle class="cls-4" cx="4.55" cy="66.38" r="0.67"/><circle class="cls-4" cx="7.11" cy="64.42" r="0.57"/><circle class="cls-4" cx="8.25" cy="66.38" r="0.28"/><path class="cls-2" d="M72.19,24.38H73a1.81,1.81,0,0,1,1.81,1.81v0a0,0,0,0,1,0,0H70.38a0,0,0,0,1,0,0v0A1.81,1.81,0,0,1,72.19,24.38Z" transform="translate(131.49 74.73) rotate(-159.19)"/><polyline class="cls-2" points="71.97 22.05 72.44 17.04 78.08 19.19 75.42 23.36"/><line class="cls-2" x1="70.43" y1="27.17" x2="66.92" y2="31.82"/><line class="cls-2" x1="71.89" y1="28.15" x2="70.97" y2="30.85"/><line class="cls-2" x1="73.51" y1="28.35" x2="73.51" y2="30.47"/><path class="cls-5" d="M68.7,85.1,68,81.18l-.1-.57a.33.33,0,0,0-.36-.29c-.19.05-.19.28-.17.43l.67,3.92.1.57a.33.33,0,0,0,.36.29c.19,0,.19-.28.17-.43Z"/><path class="cls-5" d="M75.79,83.43,71.42,79l-.63-.63c-.11-.1-.2-.08-.24.07a.63.63,0,0,0,.14.51l4.37,4.39.63.63c.1.1.2.08.24-.07a.67.67,0,0,0-.14-.51Z"/><path class="cls-5" d="M76.34,78.35l-4.18-1.76-.59-.25c-.38-.16-.38.56-.08.69l4.18,1.76.6.26c.37.16.37-.57.07-.7Z"/><rect class="cls-5" x="57.28" y="66.9" width="12.01" height="12.01" rx="4.07"/><path class="cls-6" d="M63.59,75.55a1.45,1.45,0,0,1-1-.43l-2.81-2.81a.49.49,0,0,1,0-.69.47.47,0,0,1,.69,0l2.81,2.81a.5.5,0,0,0,.7,0l6-6a.49.49,0,0,1,.69,0,.5.5,0,0,1,0,.7l-6,6A1.45,1.45,0,0,1,63.59,75.55Z"/></g></g></svg>