<svg id="payment_method_icon" data-name="payment method icon" xmlns="http://www.w3.org/2000/svg" width="29.21" height="20.272" viewBox="0 0 29.21 20.272">
  <path id="Path_1299" data-name="Path 1299" d="M52.32,11.632a1.472,1.472,0,1,0,1.472-1.472A1.472,1.472,0,0,0,52.32,11.632Z" transform="translate(-48.065 0.47)" fill="#2f3033"/>
  <path id="Path_1300" data-name="Path 1300" d="M78.639,8.917V5.148A2.208,2.208,0,0,0,76.431,2.94H51.638A2.208,2.208,0,0,0,49.43,5.148V21a2.208,2.208,0,0,0,2.208,2.208H76.431A2.208,2.208,0,0,0,78.639,21V13.511a.736.736,0,1,0-1.472,0V21a.751.751,0,0,1-.736.736H51.638A.736.736,0,0,1,50.9,21V5.148a.736.736,0,0,1,.736-.736H76.431a.736.736,0,0,1,.736.736V8.225H55.2a.751.751,0,0,0-.736.736A.736.736,0,0,0,55.2,9.7H77.9a.736.736,0,0,0,.736-.78Z" transform="translate(-49.43 -2.94)" fill="#2f3033"/>
</svg>
