<svg id="phone" xmlns="http://www.w3.org/2000/svg" width="16.347" height="16.755" viewBox="0 0 16.347 16.755">
  <path id="Path_1130" data-name="Path 1130" d="M486.64,129.85a8.88,8.88,0,0,1-5.88-2.18,9.06,9.06,0,0,1-.43-13.24.48.48,0,0,1,.7,0,.5.5,0,0,1,0,.71,8.07,8.07,0,0,0,.39,11.78,8.24,8.24,0,0,0,11.23-.58,1.09,1.09,0,0,0,0-1.55l-3.43-3.43a1.64,1.64,0,0,0-.65,1.33,1.85,1.85,0,0,0,.56,1.33.54.54,0,0,1,.14.36.5.5,0,0,1-.14.35,4.25,4.25,0,0,1-6-6,.5.5,0,0,1,.71,0,1.88,1.88,0,0,0,2.67,0l-4.69-4.79a.495.495,0,1,1,.7-.7l4.7,4.69a1.08,1.08,0,0,1,0,1.51,2.89,2.89,0,0,1-3.68.33,3.26,3.26,0,0,0,4.56,4.56,2.87,2.87,0,0,1,.34-3.67,1.05,1.05,0,0,1,1.5,0l3.44,3.43a2.1,2.1,0,0,1,0,3,9.52,9.52,0,0,1-6.74,2.76Z" transform="translate(-477.663 -113.095)" fill="#26c99a"/>
</svg>
