<svg id="pickup_time" data-name="pickup time" xmlns="http://www.w3.org/2000/svg" width="17.568" height="19.574" viewBox="0 0 17.568 19.574">
  <path id="Path_1002" data-name="Path 1002" d="M438,22.49,436.55,21A8.52,8.52,0,0,0,434,16.54l-.17-.15v-1a2.07,2.07,0,0,0-3.6-1.39,2.72,2.72,0,0,0-4.62,0,2.063,2.063,0,1,0-3.12,2.7.49.49,0,0,0,.39.19.51.51,0,0,0,.31-.11.5.5,0,0,0,.08-.7,1.069,1.069,0,1,1,1.91-.66h0a.5.5,0,0,0,.5.5.51.51,0,0,0,.5-.5,1.74,1.74,0,1,1,3.48,0,.5.5,0,1,0,1,0h0a1.07,1.07,0,0,1,2.14,0v1.23a.5.5,0,0,0,.2.35l.34.29a7.44,7.44,0,0,1,2.29,4.07.51.51,0,0,0,.14.26l1.13,1.13-1.4.85a.51.51,0,0,0-.24.43v7.29H421.61V24a6.88,6.88,0,0,1,5.44-6.72v5.14a1.52,1.52,0,0,0,.44,1.06l2.62,2.62a.5.5,0,1,0,.71-.71l-2.62-2.62a.47.47,0,0,1-.15-.35V16.69a.48.48,0,0,0-.17-.37.47.47,0,0,0-.39-.12,7.86,7.86,0,0,0-6.87,7.51.22.22,0,0,0,0,.08v8a.5.5,0,0,0,.5.5h14.62a.51.51,0,0,0,.5-.5V24.31l1.71-1a.48.48,0,0,0,.23-.37.5.5,0,0,0-.18-.45Z" transform="translate(-420.616 -12.716)" fill="#07c1f6"/>
  <path id="Path_1096" data-name="Path 1096" d="M432.17,18.06a1.43,1.43,0,1,0,1.42,1.43,1.43,1.43,0,0,0-1.42-1.43Zm.16,1.82a.41.41,0,0,1-.16,0,.47.47,0,0,1-.17,0,.49.49,0,0,1-.2-.18.56.56,0,0,1-.06-.21.42.42,0,0,1,.09-.25.43.43,0,0,1,.34-.18h.05a.42.42,0,0,1,.11.81Z" transform="translate(-420.616 -12.716)" fill="#07c1f6"/>
</svg>
