<svg xmlns="http://www.w3.org/2000/svg" width="9.612" height="12" viewBox="0 0 9.612 12">
  <g id="pin" transform="translate(0 0)">
    <path id="Path_1107" data-name="Path 1107" d="M532.582,29.423a.28.28,0,0,1-.2-.09l-1.629-1.679a.31.31,0,0,1-.094-.3.3.3,0,0,1,.21-.224.279.279,0,0,1,.286.095l1.422,1.469,2.787-2.919a4.594,4.594,0,0,0,.9-5.379,4.157,4.157,0,0,0-4.754-2.217,4.4,4.4,0,0,0-3.2,4.3,4.487,4.487,0,0,0,1.331,3.226.313.313,0,0,1,.011.427.279.279,0,0,1-.407.012,5.1,5.1,0,0,1-1.508-3.666,5.006,5.006,0,0,1,3.63-4.906,4.726,4.726,0,0,1,5.413,2.512,5.223,5.223,0,0,1-1.015,6.12l-2.976,3.124A.286.286,0,0,1,532.582,29.423Z" transform="translate(-527.73 -17.423)" fill="#909399"/>
    <path id="Path_1108" data-name="Path 1108" d="M536.11,28.37a2.54,2.54,0,1,1,2.53-2.54,2.54,2.54,0,0,1-2.53,2.54Zm0-4.57a2,2,0,1,0,2,2,2,2,0,0,0-2-2Z" transform="translate(-531.298 -20.557)" fill="#909399"/>
  </g>
</svg>
