<svg xmlns="http://www.w3.org/2000/svg" width="13.613" height="20.283" viewBox="0 0 13.613 20.283">
  <path id="Path_1309" data-name="Path 1309" d="M12.943,5.108a2.738,2.738,0,0,0-1.136.251v-2.2A1.862,1.862,0,0,0,9.991,1.3a1.8,1.8,0,0,0-.931.261,1.806,1.806,0,0,0-3.594,0,1.788,1.788,0,0,0-.931-.289A1.862,1.862,0,0,0,2.672,3.134V3.72a1.769,1.769,0,0,0-.81-.289A1.862,1.862,0,0,0,0,5.257v9.376c0,3.073,3.054,5.587,6.807,5.587s6.807-2.5,6.807-5.587V5.778a.67.67,0,0,0-.67-.67ZM9.991,2.268a.931.931,0,0,1,.885.931V5.871a.382.382,0,0,0,0,.149,2.793,2.793,0,0,0-.726,1.862V8.6a2.272,2.272,0,0,0-1.1-.466.391.391,0,0,0,0-.112V3.162A.931.931,0,0,1,9.991,2.268ZM7.282.927a.931.931,0,0,1,.931.931V8.013a.549.549,0,0,0,0,.13,2.356,2.356,0,0,0-1.2.633h0a2.793,2.793,0,0,0-.615-.4V1.858A.931.931,0,0,1,7.282.927ZM3.631,3.162a.931.931,0,1,1,1.778,0V8.087H5.27a2.5,2.5,0,0,0-1.639.521V3.162Zm9.051,11.472c0,2.561-2.635,4.656-5.876,4.656S.931,17.194.931,14.633V5.257a.931.931,0,1,1,1.769,0V9.978a6.127,6.127,0,0,0,0,1.751,2.216,2.216,0,0,0,.587.931l3.3,2.793a.847.847,0,0,0,.615.261h0a.931.931,0,0,0,.624-.27l1.322-1.481a.466.466,0,0,0,0-.652.475.475,0,0,0-.661,0L7.2,14.764,3.911,11.97a1.35,1.35,0,0,1-.317-.531,6.444,6.444,0,0,1,0-1.2.27.27,0,0,0,0-.084,1.564,1.564,0,0,1,.41-.7,1.639,1.639,0,0,1,1.21-.484h.279l.186.065a1.527,1.527,0,0,1,.652.391l.279.27a.521.521,0,0,0,.7,0l.326-.326a1.536,1.536,0,0,1,2.1,0,1.49,1.49,0,0,1,.428,1.145v.717a.466.466,0,1,0,.931,0V7.873a1.862,1.862,0,0,1,1.574-1.862v8.576Z" transform="translate(0 0.063)" fill="#c9bf1c"/>
</svg>
