<svg xmlns="http://www.w3.org/2000/svg" viewBox="0 0 98.08 104"><defs><style>.cls-1,.cls-2{fill:#23bff1;}.cls-1{opacity:0.2;}.cls-3{fill:#43bc95;}.cls-4{fill:#c93a5c;}.cls-5{fill:#fff;}.cls-5,.cls-6{stroke:#231f20;stroke-linecap:round;stroke-linejoin:round;}.cls-6{fill:none;}</style></defs><title>Asset 13</title><g id="Layer_2" data-name="Layer 2"><g id="Layer_1-2" data-name="Layer 1"><path class="cls-1" d="M27.33,1.2C25.54.88,16.32-.76,8.74,5,.69,11.05.16,21.18,0,23.55c-.51,9.71,4.35,17,6.58,20.24,8.25,12,17.19,11,19.06,19.29,1.73,7.62-5.35,10.58-4.47,20C22,91,28,99,35.1,102.14c15,6.65,32.76-8.69,42.58-17.18,8-6.94,17.06-14.73,16.71-25.41-.26-7.68-5.25-13.24-9.41-17.88C75.31,30.9,69.52,33.14,55.33,22.84,39.76,11.55,39,3.28,27.33,1.2Z"/><path class="cls-2" d="M97.64,50.84l-3.92.67-.57.09a.35.35,0,0,0-.29.37c0,.19.28.19.43.17l3.92-.67.57-.1c.16,0,.33-.19.29-.36s-.28-.2-.43-.17Z"/><path class="cls-2" d="M96,43.75l-4.39,4.37-.63.63c-.1.1-.08.2.07.24a.67.67,0,0,0,.51-.14l4.39-4.37.63-.63c.1-.11.08-.2-.07-.24a.63.63,0,0,0-.51.14Z"/><path class="cls-2" d="M90.89,43.19l-1.76,4.18-.25.6c-.16.38.56.37.69.08l1.76-4.18.26-.6c.16-.38-.57-.37-.7-.08Z"/><path class="cls-3" d="M84.42,70.71l-.56,3.47-.07.49c0,.14.06.21.19.13a.69.69,0,0,0,.3-.44l.55-3.46.08-.49c0-.15-.07-.21-.19-.14a.67.67,0,0,0-.3.44Z"/><path class="cls-2" d="M87.58,70.82l.5,3.78.08.54c0,.17.2.12.3,0a.59.59,0,0,0,.23-.46L88.19,71l-.08-.55c0-.17-.2-.11-.3,0a.59.59,0,0,0-.23.46Z"/><rect class="cls-2" x="80.73" y="50.17" width="11.13" height="17.54" rx="5.57"/><path class="cls-4" d="M87.26,61.61a1.45,1.45,0,0,1-1-.43l-2.81-2.81a.49.49,0,0,1,.69-.69l2.81,2.81a.49.49,0,0,0,.69,0l6-6a.49.49,0,0,1,.69,0,.5.5,0,0,1,0,.7l-6,6A1.47,1.47,0,0,1,87.26,61.61Z"/><path class="cls-5" d="M52,3.22a.5.5,0,0,0,0-.12,2.61,2.61,0,0,0-5.21,0s0,.08,0,.12A29.47,29.47,0,0,0,20,31.89H78.86A29.48,29.48,0,0,0,52,3.22Z"/><path class="cls-5" d="M37.22,38c-2.22.78-3.59-.32-6.71-.59-1.7-.15-4.4-.38-5.65,1.17-.74.93-.93,2.42-.35,2.95s1.55,0,2.82-.36a11.88,11.88,0,0,1,6.24.47,14.67,14.67,0,0,1,7.88,6A17.23,17.23,0,0,1,44,56.13c.19,3-.49,3.55.12,4.71,2,3.84,13,4.37,15.89,0,1.88-2.87.63-8.4-.36-12.82-.59-2.6-1.3-4.56-.24-5.77s2.73-.49,5.41-.94c3.63-.6,7.8-3,7.65-4.59-.37-4-29.27-2.71-33.76.47A5.89,5.89,0,0,1,37.22,38Z"/><rect class="cls-5" x="15.92" y="32.11" width="67.59" height="4.79" rx="2.4"/><polygon class="cls-5" points="34.92 59.6 36.21 65.96 68.33 65.96 67.86 57.49 34.92 59.6"/><line class="cls-5" x1="43.6" y1="65.97" x2="44.66" y2="103.5"/><line class="cls-5" x1="63.51" y1="66.55" x2="68.92" y2="102.66"/><circle class="cls-5" cx="62.23" cy="61.72" r="1.61"/><path class="cls-6" d="M55.14,8.63A24.14,24.14,0,0,1,70.58,20.06"/></g></g></svg>