<svg id="close" xmlns="http://www.w3.org/2000/svg" width="16.98" height="16.98" viewBox="0 0 16.98 16.98">
  <circle id="Ellipse_282" data-name="Ellipse 282" cx="8.49" cy="8.49" r="8.49" fill="#c93a5c"/>
  <path id="Path_999" data-name="Path 999" d="M521.43,326.93a.47.47,0,0,1-.35-.15l-8-7.94a.5.5,0,0,1,.71-.71l7.94,7.94a.5.5,0,0,1,0,.71.47.47,0,0,1-.3.15Z" transform="translate(-508.97 -313.97)" fill="#fff"/>
  <path id="Path_1000" data-name="Path 1000" d="M513.49,326.93a.5.5,0,0,1-.36-.86l8-7.94a.5.5,0,0,1,.7.71l-7.94,7.94A.49.49,0,0,1,513.49,326.93Z" transform="translate(-508.97 -313.97)" fill="#fff"/>
</svg>
