<svg id="search" xmlns="http://www.w3.org/2000/svg" width="24" height="23.964" viewBox="0 0 24 23.964">
  <path id="Path_1076" data-name="Path 1076" d="M283.782,254.472a.613.613,0,0,1-.433-.18l-2.56-2.56a.6.6,0,0,1,0-.853l3.821-3.821a10.683,10.683,0,0,1-1.658-5.72,10.816,10.816,0,0,1,.769-4A.6.6,0,0,1,284.5,237a.589.589,0,0,1,.336.781,9.542,9.542,0,0,0,1.034,9.013.6.6,0,0,1-.072.769l-3.737,3.737,1.718,1.718,3.737-3.737a.6.6,0,0,1,.769-.072,9.614,9.614,0,1,0-1.622-14.324.6.6,0,0,1-.889-.817,10.815,10.815,0,1,1,2.247,16.4l-3.821,3.821a.6.6,0,0,1-.421.18Z" transform="translate(-280.612 -230.509)" fill="#909399"/>
  <path id="Path_1077" data-name="Path 1077" d="M290.6,246.369a.3.3,0,1,1,0-.6,7.381,7.381,0,0,0,7.381-7.381.3.3,0,1,1,.6,0,7.992,7.992,0,0,1-7.98,7.98Z" transform="translate(-278.64 -228.965)" fill="#909399"/>
</svg>
