<svg id="search_market" data-name="search market" xmlns="http://www.w3.org/2000/svg" width="23.735" height="23.805" viewBox="0 0 23.735 23.805">
  <g id="Group_620" data-name="Group 620" transform="translate(0)">
    <path id="Path_1088" data-name="Path 1088" d="M284.31,310.66a10.7,10.7,0,0,0,1.156,10.165l-3.99,3.99a.6.6,0,0,0,0,.839l1.957,1.957a.483.483,0,0,0,.686,0l4.066-4.066a10.749,10.749,0,1,0-1.83-16.1" transform="translate(-281.305 -303.947)" fill="#fff"/>
    <path id="Path_1089" data-name="Path 1089" d="M290.685,320.155a.635.635,0,1,1,0-1.271,7.522,7.522,0,0,0,7.509-7.509.635.635,0,1,1,1.271,0A8.792,8.792,0,0,1,290.685,320.155Z" transform="translate(-278.938 -302.109)" fill="#091c3f"/>
  </g>
</svg>
