<svg id="share" xmlns="http://www.w3.org/2000/svg" width="18.336" height="18.257" viewBox="0 0 18.336 18.257">
  <path id="Path_1208" data-name="Path 1208" d="M673.11,65.54H667.7a.5.5,0,0,0,0,1h5.41a1.53,1.53,0,0,1,.3,0,17.25,17.25,0,0,0-7.22,7.52.51.51,0,0,0,.23.67.589.589,0,0,0,.22,0,.52.52,0,0,0,.45-.28,16.29,16.29,0,0,1,7.28-7.35,1.57,1.57,0,0,1,.32.94v5a.5.5,0,0,0,1,0v-5A2.59,2.59,0,0,0,673.11,65.54Z" transform="translate(-657.354 -65.54)" fill="#f2f5fc"/>
  <path id="Path_1209" data-name="Path 1209" d="M673.87,79a.49.49,0,0,0-.69.15,8.06,8.06,0,1,1-11-11.27.5.5,0,0,0,.16-.69.51.51,0,0,0-.69-.16A9.06,9.06,0,1,0,674,79.69a.5.5,0,0,0-.13-.69Z" transform="translate(-657.354 -65.54)" fill="#f2f5fc"/>
</svg>
