<svg xmlns="http://www.w3.org/2000/svg" width="31.803" height="26.406" viewBox="0 0 31.803 26.406">
  <path id="Path_1211" data-name="Path 1211" d="M541,182.831h-.21a18.257,18.257,0,0,1-9.926-2.936.807.807,0,0,1-.327-.955.775.775,0,0,1,.856-.517h1.421A11.706,11.706,0,0,0,538.337,177a7.007,7.007,0,0,1-4.424-4.489.791.791,0,0,1,.145-.775.952.952,0,0,1,.307-.21,7.1,7.1,0,0,1-2.664-5.457.9.9,0,0,1,.4-.743.807.807,0,0,1,.662-.1,7.12,7.12,0,0,1,0-7.169.807.807,0,0,1,.63-.4.839.839,0,0,1,.694.291,16.309,16.309,0,0,0,3.972,3.552.807.807,0,0,1,.242,1.114.791.791,0,0,1-1.114.242,18.231,18.231,0,0,1-3.487-2.906,5.168,5.168,0,0,0-.258,1.615,5.377,5.377,0,0,0,2.39,4.489.791.791,0,0,1,.323.92.84.84,0,0,1-.791.549,7.059,7.059,0,0,1-1.825-.291,5.376,5.376,0,0,0,4.182,4.053.807.807,0,0,1,.646.759.775.775,0,0,1-.565.807,6.458,6.458,0,0,1-1.76.291,5.392,5.392,0,0,0,4.5,2.583.807.807,0,0,1,.484,1.437,13.11,13.11,0,0,1-6.458,2.713,16.565,16.565,0,0,0,6.249,1.227H541a16.744,16.744,0,0,0,16.727-16.566v-1.114a.839.839,0,0,1,.323-.646,11.025,11.025,0,0,0,1.146-.969,9.132,9.132,0,0,0-1.1.178.807.807,0,0,1-.517-1.485,5.476,5.476,0,0,0,1.162-.937,14.316,14.316,0,0,1-1.808.5.791.791,0,0,1-.743-.258,5.4,5.4,0,0,0-9.219,4.924.808.808,0,0,1-.824,1,18.536,18.536,0,0,1-5.377-1.1.807.807,0,1,1,.549-1.518,16.386,16.386,0,0,0,3.907.92,7.052,7.052,0,0,1,11.819-5.716A12.043,12.043,0,0,0,560.279,157a.775.775,0,0,1,.9,0,.791.791,0,0,1,.274.872,7.282,7.282,0,0,1-.823,1.711l.565-.226a.791.791,0,0,1,.937.21.823.823,0,0,1,0,.969,13.9,13.9,0,0,1-2.906,3.229v.727A18.358,18.358,0,0,1,541,182.832Z" transform="translate(-530.49 -156.426)" fill="#dcdfe5"/>
</svg>
