<svg id="Component_77_1" data-name="Component 77 – 1" xmlns="http://www.w3.org/2000/svg" width="40" height="40" viewBox="0 0 40 40">
  <g id="avatar">
    <circle id="Ellipse_154" data-name="Ellipse 154" cx="20" cy="20" r="20" fill="#c9bf1c"/>
  </g>
  <g id="account" transform="translate(9 5)">
    <path id="Path_1137" data-name="Path 1137" d="M443.406,143.34H424.417a.7.7,0,0,1-.7-.7v-.169a9.886,9.886,0,0,1,1.478-5.2.7.7,0,0,1,1.272.206.693.693,0,0,1-.087.525,8.571,8.571,0,0,0-1.241,3.933h17.525a9.458,9.458,0,0,0-3.1-5.618l-.669-.506a10.565,10.565,0,0,1-13.631-3.713,10.743,10.743,0,0,1,2.1-14.067,10.552,10.552,0,0,1,14.112.5,10.746,10.746,0,0,1,1.125,14.18.7.7,0,1,1-1.115-.843,9.348,9.348,0,0,0-1.044-12.409,9.179,9.179,0,0,0-12.359-.233,9.347,9.347,0,0,0-1.5,12.361,9.188,9.188,0,0,0,12.049,2.782.679.679,0,0,1,.753,0l1.032.787a10.633,10.633,0,0,1,3.681,7.486A.7.7,0,0,1,443.406,143.34Z" transform="translate(-423.544 -115.565)" fill="#f2f5fc"/>
  </g>
</svg>
