<svg id="visa_card" data-name="visa card" xmlns="http://www.w3.org/2000/svg" width="29.209" height="20.272" viewBox="0 0 29.209 20.272">
  <path id="Path_1304" data-name="Path 1304" d="M79.571,53.88H54.778a2.208,2.208,0,0,0-2.208,2.208v3.857a.736.736,0,0,0,.736.736h3.96l1.826,5.329a.736.736,0,0,0,.692.5h.78a.736.736,0,0,0,.692-.471l2.252-5.977a.736.736,0,0,0-1.369-.53l-2,5.153L58.5,59.7a.736.736,0,0,0-.692-.5H54.1V56.088a.751.751,0,0,1,.736-.736H79.571a.736.736,0,0,1,.736.736V71.944a.736.736,0,0,1-.736.736H54.778a.736.736,0,0,1-.736-.736V64.451a.736.736,0,0,0-.736-.736.751.751,0,0,0-.736.736v7.494a2.208,2.208,0,0,0,2.208,2.208H79.571a2.208,2.208,0,0,0,2.208-2.208V56.088a2.208,2.208,0,0,0-2.208-2.208Z" transform="translate(-52.57 -53.88)" fill="#909399"/>
  <path id="Path_1305" data-name="Path 1305" d="M62.47,57.442a.751.751,0,0,0-.942.456L59.452,63.92a.736.736,0,0,0,.456.928.663.663,0,0,0,.236,0,.721.721,0,0,0,.692-.5l2.091-6.021A.736.736,0,0,0,62.47,57.442Z" transform="translate(-49.338 -52.216)" fill="#909399"/>
  <path id="Path_1306" data-name="Path 1306" d="M67.176,64.326l.412-1.1h3.239l.25,1.06a.721.721,0,0,0,.707.574H72a.736.736,0,0,0,.559-.883l-1.325-5.889a.721.721,0,0,0-.721-.574h-1.8a.751.751,0,0,0-.692.471L65.807,63.87a.721.721,0,0,0,.412.942.751.751,0,0,0,.957-.486Zm2.046-5.374h.648l.662,2.812H68.177Z" transform="translate(-46.344 -52.166)" fill="#909399"/>
  <path id="Path_1307" data-name="Path 1307" d="M63.938,58.962H66.4a.736.736,0,1,0,0-1.472H63.938a2.208,2.208,0,0,0,0,4.417h1.369a.751.751,0,0,1,.736.736.736.736,0,0,1-.736.736H62.761a.736.736,0,0,0,0,1.472h2.473a2.208,2.208,0,1,0,0-4.417H63.865a.736.736,0,0,1,0-1.472Z" transform="translate(-48.244 -52.175)" fill="#909399"/>
</svg>
